<svg id="svg" version="1.1" width="512" height="512" xmlns="http://www.w3.org/2000/svg"><path d="M49.768 198.059 C 43.957 201.127,42.672 204.612,42.045 219.000 L 41.500 231.500 29.500 232.000 C 16.531 232.540,12.955 233.699,9.088 238.615 C 7.101 241.142,7.000 242.441,7.000 265.570 C 7.000 278.936,7.439 291.024,7.975 292.434 C 9.136 295.489,13.925 298.641,19.643 300.115 C 24.093 301.263,25.000 303.047,25.000 310.657 C 25.000 313.272,25.523 314.262,27.250 314.914 C 30.013 315.958,32.493 314.756,35.878 310.733 C 37.273 309.075,40.611 305.982,43.297 303.860 L 48.180 300.000 59.942 300.000 C 70.494 300.000,72.044 299.768,75.010 297.750 C 81.619 293.252,82.500 291.041,82.500 278.952 L 82.500 268.064 84.817 271.025 C 88.736 276.034,99.184 285.923,101.247 286.578 C 104.332 287.557,105.463 285.445,106.000 277.703 L 106.500 270.500 111.059 269.375 C 116.784 267.961,120.934 265.835,123.502 262.999 C 125.381 260.925,125.516 259.172,125.772 233.647 C 126.029 207.930,125.937 206.328,124.031 203.241 C 122.924 201.448,120.552 199.088,118.759 197.995 C 115.688 196.122,113.712 196.010,84.500 196.048 C 55.629 196.086,53.244 196.224,49.768 198.059 M115.171 207.655 C 116.843 209.168,116.999 211.290,116.985 232.405 C 116.976 245.107,116.639 255.995,116.235 256.600 C 114.799 258.751,111.062 260.000,106.066 260.000 C 99.772 260.000,97.000 262.321,97.000 267.591 L 97.000 271.182 91.713 265.591 L 86.426 260.000 71.213 260.000 C 50.386 260.000,52.000 262.283,52.000 232.829 C 52.000 212.671,52.215 209.420,53.655 207.829 C 55.186 206.137,57.486 206.000,84.326 206.000 C 109.923 206.000,113.558 206.195,115.171 207.655 M68.905 220.941 C 65.951 223.896,65.791 224.432,66.197 230.041 C 66.676 236.668,68.442 239.178,77.134 245.584 C 83.524 250.295,85.764 250.031,93.231 243.689 C 103.490 234.976,105.409 227.255,98.927 220.773 C 96.216 218.062,95.542 217.857,91.228 218.429 C 88.628 218.774,85.375 219.056,84.000 219.056 C 82.625 219.056,79.372 218.774,76.772 218.429 C 72.414 217.851,71.798 218.048,68.905 220.941 M80.559 222.096 C 80.973 222.766,82.646 222.945,84.868 222.557 C 95.682 220.670,95.589 220.663,97.856 223.544 C 100.551 226.971,100.576 230.332,97.936 234.603 C 95.043 239.285,87.144 246.000,84.531 246.000 C 81.453 246.000,73.122 240.247,70.883 236.576 C 68.513 232.690,68.391 225.330,70.655 222.829 C 72.500 220.790,79.435 220.277,80.559 222.096 M42.244 251.439 C 42.898 259.291,43.323 260.731,45.744 263.278 C 50.079 267.840,53.656 269.173,63.413 269.860 L 72.500 270.500 72.790 278.710 C 73.212 290.660,72.749 291.000,56.077 291.000 C 43.487 291.000,43.070 291.070,39.936 293.707 C 38.166 295.196,35.883 297.784,34.863 299.457 L 33.007 302.500 33.004 297.950 C 33.002 295.447,32.460 292.860,31.800 292.200 C 31.140 291.540,28.215 291.000,25.300 291.000 C 21.333 291.000,19.497 290.497,18.000 289.000 C 16.130 287.130,16.000 285.667,16.000 266.500 C 16.000 240.651,15.296 241.807,30.783 242.217 L 41.500 242.500 42.244 251.439 M122.500 268.945 C 117.499 270.992,115.234 277.706,116.560 286.550 C 117.547 293.131,119.328 294.495,128.874 295.980 C 133.363 296.679,137.280 297.644,137.577 298.125 C 138.213 299.153,137.959 299.175,127.380 299.010 C 118.414 298.869,116.000 300.063,116.000 304.637 C 116.000 307.361,117.662 311.074,119.400 312.235 C 121.093 313.365,137.015 313.124,141.421 311.900 C 143.578 311.301,146.615 309.538,148.171 307.983 C 150.775 305.379,151.000 304.555,151.000 297.633 C 151.000 291.198,150.663 289.720,148.669 287.402 C 146.730 285.147,145.346 284.626,140.419 284.294 C 132.468 283.759,129.800 283.133,130.518 281.971 C 130.848 281.437,134.868 281.000,139.452 281.000 C 146.129 281.000,147.907 280.686,148.393 279.418 C 149.426 276.727,149.062 270.462,147.800 269.200 C 146.420 267.820,125.758 267.612,122.500 268.945 M156.200 269.200 C 155.348 270.052,155.000 276.099,155.000 290.045 C 155.000 307.807,155.175 309.849,156.829 311.345 C 158.324 312.698,160.926 313.000,171.106 313.000 C 186.117 313.000,188.008 312.181,187.985 305.693 C 187.976 303.387,187.624 300.957,187.203 300.294 C 186.730 299.550,183.191 298.975,177.968 298.794 C 168.341 298.460,166.910 296.781,175.570 295.980 C 181.553 295.427,184.000 293.546,184.000 289.500 C 184.000 285.325,181.939 284.084,174.500 283.783 C 164.218 283.367,166.277 281.507,177.071 281.461 C 183.889 281.432,186.349 281.062,187.045 279.961 C 188.376 277.856,188.212 270.612,186.800 269.200 C 185.980 268.380,181.133 268.000,171.500 268.000 C 161.867 268.000,157.020 268.380,156.200 269.200 M192.872 269.654 C 191.816 270.927,191.500 275.663,191.500 290.242 C 191.500 308.935,191.530 309.201,193.861 311.088 C 197.053 313.674,203.372 313.628,206.000 311.000 C 207.693 309.307,208.002 307.657,208.012 300.250 L 208.024 291.500 210.580 295.972 C 211.986 298.431,213.562 302.690,214.083 305.437 C 214.604 308.183,215.496 310.896,216.065 311.465 C 216.634 312.034,219.589 312.500,222.631 312.500 C 231.201 312.500,231.302 312.217,230.711 289.734 C 230.377 276.996,229.823 270.491,228.987 269.484 C 228.211 268.550,225.979 268.000,222.959 268.000 C 215.391 268.000,215.001 268.361,214.996 275.357 L 214.993 281.500 212.897 278.000 C 211.744 276.075,209.407 273.038,207.704 271.250 C 204.989 268.400,203.970 268.000,199.426 268.000 C 195.827 268.000,193.826 268.505,192.872 269.654 M234.200 269.200 C 232.523 270.877,232.702 277.130,234.501 279.698 C 235.327 280.877,237.306 282.128,238.900 282.478 C 242.562 283.282,242.965 284.808,243.002 298.000 C 243.018 303.775,243.361 308.995,243.765 309.600 C 246.268 313.348,254.986 314.203,257.760 310.973 C 259.147 309.357,259.601 306.366,260.000 296.225 L 260.500 283.504 264.469 282.206 C 266.653 281.492,268.783 280.366,269.204 279.704 C 270.407 277.811,270.127 270.527,268.800 269.200 C 267.118 267.518,235.882 267.518,234.200 269.200 M274.200 269.200 C 273.540 269.860,273.000 272.335,273.000 274.700 C 273.000 278.899,273.512 279.756,278.428 283.789 C 279.510 284.677,280.000 286.792,280.000 290.573 C 280.000 295.779,279.819 296.175,276.544 298.106 C 274.644 299.228,272.801 301.052,272.449 302.160 C 271.453 305.298,272.886 310.869,274.977 311.988 C 277.717 313.454,299.114 313.230,301.104 311.714 C 305.423 308.425,304.524 301.097,299.434 298.093 C 296.229 296.203,296.000 295.724,296.000 290.919 C 296.000 286.289,296.361 285.439,299.581 282.490 C 302.166 280.122,303.309 278.117,303.689 275.284 C 304.571 268.706,303.063 268.000,288.129 268.000 C 279.562 268.000,275.008 268.392,274.200 269.200 M313.449 269.868 C 306.558 274.070,306.190 290.355,312.905 293.949 C 313.942 294.504,317.425 295.202,320.645 295.501 C 326.820 296.074,326.544 295.794,317.561 292.368 C 313.355 290.763,312.489 289.966,311.716 286.992 C 310.577 282.608,311.330 276.671,313.433 273.462 C 314.985 271.093,315.461 271.000,326.054 271.000 C 338.073 271.000,339.388 271.659,337.153 276.564 C 336.192 278.672,335.334 279.015,330.771 279.110 L 325.500 279.219 330.000 280.127 C 334.888 281.114,339.048 280.521,340.225 278.671 C 341.620 276.478,341.018 271.326,339.171 269.655 C 336.382 267.131,317.683 267.286,313.449 269.868 M354.480 268.850 C 346.670 271.364,344.890 276.121,345.873 291.851 C 346.971 309.427,349.337 311.776,366.095 311.924 C 375.987 312.011,378.000 310.806,378.000 304.794 C 378.000 300.152,376.464 299.041,368.879 298.199 L 362.587 297.500 361.809 293.750 C 361.381 291.688,361.380 288.313,361.806 286.250 L 362.581 282.500 369.372 282.000 C 377.042 281.435,379.000 279.883,379.000 274.366 C 379.000 269.260,376.250 267.981,365.527 268.100 C 360.562 268.155,355.591 268.492,354.480 268.850 M391.036 269.277 C 389.140 270.236,387.710 272.943,384.840 281.012 C 381.371 290.761,381.148 292.064,381.671 299.500 C 382.402 309.889,383.701 312.000,389.368 312.000 C 394.103 312.000,396.302 310.313,397.355 305.869 C 398.392 301.493,404.000 301.584,404.000 305.977 C 404.000 306.845,404.701 308.555,405.557 309.777 C 406.839 311.608,408.067 312.000,412.522 312.000 C 419.424 312.000,420.000 310.984,420.000 298.811 C 420.000 291.498,419.487 288.078,417.618 282.924 C 414.384 274.008,412.340 270.252,410.055 269.030 C 407.373 267.594,394.018 267.767,391.036 269.277 M427.336 268.999 C 425.537 269.725,425.051 271.006,424.450 276.620 C 423.655 284.048,424.393 307.477,425.509 310.250 C 426.057 311.609,427.402 312.000,431.536 312.000 C 437.745 312.000,439.455 310.718,440.471 305.301 C 441.325 300.749,442.272 300.036,447.500 300.012 C 453.884 299.981,457.533 297.114,459.007 290.971 C 460.493 284.776,459.774 275.830,457.512 272.378 C 456.623 271.021,454.765 269.481,453.383 268.955 C 450.274 267.774,430.293 267.807,427.336 268.999 M466.197 269.265 C 463.944 270.473,463.885 270.907,463.475 289.173 C 462.924 313.713,461.900 312.316,480.458 312.366 C 495.977 312.409,497.000 311.954,497.000 305.009 C 497.000 299.715,495.718 299.000,486.227 299.000 C 478.798 299.000,477.891 298.803,478.190 297.254 C 478.450 295.900,479.756 295.431,484.013 295.163 C 490.768 294.737,492.000 293.785,492.000 288.994 C 492.000 284.583,490.704 283.942,483.976 285.028 L 479.500 285.750 484.000 285.993 C 486.475 286.127,488.837 286.184,489.250 286.118 C 490.266 285.958,490.193 287.363,489.025 290.435 C 488.205 292.591,487.420 293.000,484.096 293.000 C 480.141 293.000,477.000 294.955,477.000 297.416 C 477.000 300.195,480.562 301.894,487.019 302.196 C 492.919 302.473,493.529 302.707,493.827 304.805 C 494.493 309.505,492.568 310.230,480.441 309.843 C 472.943 309.604,468.754 309.040,467.646 308.121 C 466.234 306.949,466.000 304.298,466.000 289.485 C 466.000 274.659,466.224 272.128,467.582 271.607 C 468.452 271.273,474.752 271.000,481.582 271.000 L 494.000 271.000 494.000 273.800 C 494.000 277.907,492.299 278.983,485.550 279.145 L 479.500 279.290 486.733 280.282 C 492.279 281.042,494.320 280.980,495.483 280.014 C 497.313 278.496,497.534 270.934,495.800 269.200 C 494.130 267.530,469.330 267.584,466.197 269.265 M375.827 273.805 C 376.365 277.605,374.319 279.000,368.206 279.000 C 360.179 279.000,358.996 280.404,359.015 289.905 C 359.024 294.082,359.457 298.175,359.977 299.000 C 360.622 300.021,363.249 300.660,368.212 301.000 L 375.500 301.500 375.500 304.928 C 375.500 307.882,375.085 308.473,372.500 309.204 C 368.853 310.235,358.676 309.263,354.316 307.468 C 349.307 305.406,348.000 301.687,348.000 289.500 C 348.000 278.462,349.164 274.187,352.750 272.062 C 353.737 271.478,359.081 271.129,365.000 271.263 C 375.121 271.491,375.512 271.583,375.827 273.805 M410.592 274.179 C 416.157 284.939,419.338 300.565,417.122 306.250 C 416.244 308.501,415.432 309.000,412.647 309.000 C 408.889 309.000,407.605 307.876,406.610 303.716 C 405.833 300.464,402.209 298.480,398.670 299.368 C 396.848 299.825,395.837 301.115,394.847 304.245 C 393.525 308.422,393.417 308.500,389.000 308.500 L 384.500 308.500 384.208 300.734 C 383.950 293.893,384.353 291.748,387.586 282.734 C 389.604 277.105,391.761 272.169,392.378 271.765 C 392.995 271.361,396.976 271.024,401.224 271.015 C 408.898 271.000,408.959 271.021,410.592 274.179 M453.777 272.750 C 457.881 276.345,459.057 284.318,456.446 290.844 C 454.696 295.218,451.723 297.000,446.175 297.000 C 441.202 297.000,438.000 299.340,438.000 302.975 C 438.000 307.707,437.052 309.000,433.584 309.000 C 427.046 309.000,426.823 308.329,427.180 289.674 C 427.439 276.120,427.786 272.743,429.000 271.977 C 429.825 271.456,435.288 271.024,441.139 271.015 C 449.859 271.003,452.139 271.316,453.777 272.750 M439.035 280.934 C 436.629 285.430,438.487 289.000,443.232 289.000 C 447.742 289.000,448.996 283.334,445.169 280.250 C 442.901 278.423,440.219 278.722,439.035 280.934 M402.354 281.000 C 402.614 281.825,403.080 283.962,403.388 285.750 C 403.927 288.869,403.818 289.000,400.676 289.000 C 397.497 289.000,397.412 288.890,397.748 285.250 C 398.032 282.178,397.894 281.821,396.984 283.276 C 396.372 284.252,396.013 286.277,396.186 287.776 C 396.455 290.108,397.016 290.543,400.086 290.801 C 405.037 291.216,406.698 289.154,404.961 284.751 C 403.618 281.345,401.505 278.304,402.354 281.000 M443.820 284.250 C 443.644 285.488,443.050 286.500,442.500 286.500 C 441.950 286.500,441.356 285.488,441.180 284.250 C 440.961 282.702,441.372 282.000,442.500 282.000 C 443.628 282.000,444.039 282.702,443.820 284.250 M328.500 285.674 C 337.837 286.839,340.000 288.966,340.000 296.983 C 340.000 305.204,337.736 307.699,329.000 309.102 C 325.425 309.676,320.138 309.856,317.251 309.501 C 312.823 308.957,311.909 308.486,311.407 306.485 C 310.487 302.821,311.653 302.001,317.809 301.985 C 326.298 301.962,327.504 300.394,319.677 299.556 C 309.792 298.497,306.059 301.646,309.152 308.434 C 310.652 311.727,312.389 312.193,322.990 312.142 C 338.083 312.071,342.000 308.848,342.000 296.502 C 342.000 290.652,341.700 289.627,339.354 287.452 C 337.143 285.403,335.788 285.025,331.104 285.150 C 328.022 285.232,326.850 285.468,328.500 285.674 " stroke="none" fill="undefined" fill-rule="evenodd"/></svg>