<?xml version="1.0" encoding="UTF-8" standalone="no" ?>
<!DOCTYPE svg PUBLIC "-//W3C//DTD SVG 1.1//EN" "http://www.w3.org/Graphics/SVG/1.1/DTD/svg11.dtd">
<svg xmlns="http://www.w3.org/2000/svg" xmlns:xlink="http://www.w3.org/1999/xlink" version="1.1" width="640" height="480" viewBox="0 0 640 480" xml:space="preserve">
<desc>Created with Fabric.js 3.6.3</desc>
<defs>
</defs>
<g transform="matrix(1 0 0 1 322.83 226.36)"  >
<linearGradient id="SVGID_4" gradientUnits="userSpaceOnUse" gradientTransform="matrix(1 0 0 1 7.01 196.01)"  x1="0" y1="59.858008601863105" x2="490.65006088589445" y2="59.858008601863105">
<stop offset="0%" style="stop-color:rgba(155, 0, 109, 1);"/>
<stop offset="100%" style="stop-color:rgba(255, 0, 0, 1);"/>
</linearGradient>
<path style="stroke: none; stroke-width: 1; stroke-dasharray: none; stroke-linecap: butt; stroke-dashoffset: 0; stroke-linejoin: miter; stroke-miterlimit: 4; fill: url(#SVGID_4); fill-rule: evenodd; opacity: 1;"  transform=" translate(-252.34, -255.87)" d="M 49.435 198.456 C 43.639 201.93 42.67 204.623 42.044 219 L 41.5 231.5 L 29.5 232 C 16.531 232.54 12.955 233.699 9.088 238.615 C 7.098 241.145 7.001 242.425 7.015 265.885 C 7.025 283.552 7.382 291.206 8.28 293 C 9.554 295.548 16.379 299.507 21.131 300.454 C 24.06 301.038 24.965 303.19 24.986 309.628 C 25.013 317.542 29.795 317.781 36.469 310.202 C 38.652 307.723 42.207 304.413 44.369 302.847 C 48.157 300.104 48.726 300 60.002 300 C 73.154 300 76.161 298.84 80.804 291.976 C 82.957 288.793 83.128 287.647 82.828 278.391 L 82.5 268.282 L 84.5 270.96 C 85.6 272.432 88.885 275.973 91.799 278.828 C 103.203 289.998 105.603 289.529 106.241 276 L 106.5 270.5 L 112.204 269.145 C 115.848 268.28 119.28 266.606 121.704 264.511 L 125.5 261.231 L 125.772 233.866 C 126.029 207.93 125.938 206.33 124.031 203.241 C 122.924 201.448 120.552 199.088 118.759 197.995 C 115.691 196.124 113.679 196.008 84.5 196.013 L 53.5 196.019 L 49.435 198.456 M 114.777 207.557 C 116.966 209.089 117 209.471 117 232.366 C 117 250.161 116.687 256.046 115.667 257.441 C 114.687 258.782 112.408 259.44 107.05 259.931 C 99.033 260.666 97 262.134 97 267.191 C 97 268.736 96.8 270 96.555 270 C 96.31 270 94.092 267.863 91.626 265.25 L 87.141 260.5 L 71.118 260 C 59.879 259.649 54.707 259.112 53.797 258.201 C 53.084 257.486 52.21 253.661 51.856 249.701 C 51.501 245.74 51.001 240.576 50.744 238.223 C 50.487 235.871 50.665 233.707 51.138 233.414 C 51.612 233.122 52 227.656 52 221.27 C 52 211.868 52.315 209.309 53.655 207.829 C 55.185 206.138 57.473 206 83.932 206 C 108.22 206 112.892 206.236 114.777 207.557 M 71.348 218.628 C 67.655 220.417 66 223.672 66 229.146 C 66 235.303 68.676 239.766 75.287 244.632 C 82.672 250.069 85.296 250.18 91.673 245.328 C 97.269 241.07 98.303 239.895 101.127 234.586 C 106.307 224.844 97.564 214.773 87.124 218.456 C 85.056 219.186 82.719 219.444 81.932 219.029 C 78.76 217.359 74.317 217.191 71.348 218.628 M 88.476 220.466 C 93.698 219.906 94.864 220.105 97.214 221.954 C 100.646 224.653 101.712 229.722 99.676 233.66 C 97.586 237.701 88.723 245.78 85.49 246.592 C 81.608 247.566 72.291 240.807 69.178 234.758 C 67.174 230.864 66.999 229.716 67.9 226.372 C 69.33 221.061 72.881 218.961 78.355 220.191 C 80.607 220.697 85.161 220.821 88.476 220.466 M 41.748 247 C 42.262 256.351 43.168 260.047 45.68 263.031 C 49.836 267.971 53.606 269.444 63.5 269.997 L 72.5 270.5 L 72.79 278.71 C 73.212 290.684 72.778 291 55.868 291 L 42.737 291 L 38.368 295.368 C 34.171 299.566 34 299.638 34 297.197 C 34 292.891 31.359 291 25.345 291 C 21.333 291 19.501 290.501 18 289 C 16.13 287.13 16 285.667 16 266.5 C 16 240.651 15.296 241.807 30.783 242.217 L 41.5 242.5 L 41.748 247 M 121.5 269.208 C 120.4 269.839 118.952 271.062 118.282 271.927 C 116.787 273.857 116.577 289.342 118.009 292.018 C 118.981 293.833 124.217 295.752 134 297.88 C 137.966 298.742 137.372 298.84 129 298.7 C 123.775 298.612 118.938 298.895 118.25 299.329 C 116.408 300.491 116.648 309.505 118.571 311.429 C 119.787 312.644 122.334 312.995 129.821 312.978 C 145.972 312.941 151.989 308.534 151.996 296.735 C 152 291.609 151.636 290.573 148.711 287.381 C 145.636 284.026 144.902 283.743 137.461 283.036 L 129.5 282.28 L 138.215 282.14 C 145.724 282.019 147.073 281.732 147.965 280.066 C 149.375 277.431 149.273 270.673 147.8 269.2 C 146.212 267.612 124.271 267.618 121.5 269.208 M 156.2 269.2 C 155.348 270.052 155 276.099 155 290.045 C 155 307.807 155.175 309.849 156.829 311.345 C 158.333 312.707 160.965 313 171.674 313 C 183.014 313 184.903 312.764 186.345 311.171 C 188.208 309.113 188.656 300.524 186.956 299.473 C 186.381 299.118 181.994 298.501 177.206 298.103 C 168.623 297.39 168.571 297.37 173.5 296.661 C 182.204 295.409 183.473 294.769 183.76 291.482 C 183.903 289.842 183.442 287.375 182.736 286 C 181.587 283.765 180.66 283.44 173.976 282.93 L 166.5 282.36 L 176.05 282.18 C 181.915 282.07 186.063 281.537 186.8 280.8 C 188.356 279.244 188.356 270.756 186.8 269.2 C 185.98 268.38 181.133 268 171.5 268 C 161.867 268 157.02 268.38 156.2 269.2 M 192.571 269.571 C 191.254 270.889 191.002 274.16 191.015 289.821 C 191.024 300.095 191.361 308.995 191.765 309.6 C 194.254 313.328 202.829 314.171 206 311 C 207.673 309.327 208.003 307.653 208.017 300.75 L 208.034 292.5 L 211 297.5 C 212.631 300.25 213.974 303.962 213.983 305.75 C 214.007 310.405 216.987 313 222.309 313 C 230.363 313 230.458 312.757 230.81 291.129 C 231.013 278.664 230.742 271.387 230.025 270.047 C 229.098 268.315 227.954 268 222.587 268 C 214.737 268 213.565 269.116 214.222 275.963 L 214.698 280.916 L 211.985 276.637 C 207.899 270.195 204.583 268 198.937 268 C 195.912 268 193.563 268.58 192.571 269.571 M 233.464 269.679 C 232.245 270.897 231.927 272.417 232.302 275.218 C 232.963 280.145 234.371 281.791 238.6 282.585 L 242 283.223 L 242 293.962 C 242 309.832 243.621 313 251.743 313 C 258.876 313 259.435 311.909 260 296.863 L 260.5 283.558 L 264 282.529 C 269.545 280.899 270 280.293 270 274.548 C 270 270.607 269.587 269.056 268.418 268.607 C 267.548 268.273 259.705 268 250.99 268 C 237.486 268 234.895 268.248 233.464 269.679 M 273.667 268.667 C 273.3 269.033 273 271.749 273 274.7 C 273 279.774 273.191 280.18 276.5 282.133 C 279.803 284.081 280 284.498 280 289.517 C 280 296.044 279.312 298 277.015 298 C 274.211 298 272.714 300.674 272.714 305.684 C 272.714 312.388 274.008 313.007 287.941 312.968 C 301.947 312.93 303 312.389 303 305.239 C 303 300.537 302.764 300.058 299.5 298.133 C 296.221 296.198 296 295.743 296 290.919 C 296 286.328 296.373 285.428 299.442 282.617 C 302.335 279.967 302.923 278.698 303.133 274.659 C 303.304 271.348 302.933 269.57 301.941 268.942 C 300.296 267.901 274.682 267.652 273.667 268.667 M 313.093 269.265 C 311.727 269.966 310.076 272.229 309.275 274.5 C 307.709 278.936 308.04 288.338 309.882 291.78 C 311.055 293.971 315.462 295.629 322.5 296.529 C 325.537 296.917 324.844 296.508 319.621 294.832 C 313.672 292.924 312.556 292.181 311.371 289.345 C 309.602 285.113 309.623 278.839 311.418 274.541 C 312.64 271.618 313.438 271.059 317.168 270.513 C 319.551 270.165 325.325 270.019 330 270.19 L 338.5 270.5 L 338.761 274 C 338.905 275.925 338.658 278.055 338.213 278.732 C 337.768 279.41 334.275 280.366 330.452 280.856 L 323.5 281.747 L 330.693 281.874 C 337.071 281.986 338.063 281.748 339.443 279.777 C 341.233 277.222 341.47 272.747 339.965 269.934 C 339.031 268.189 337.782 268.001 327.215 268.015 C 319.912 268.024 314.594 268.495 313.093 269.265 M 351.209 269.566 C 349.979 270.427 348.043 272.956 346.906 275.185 C 345.09 278.743 344.878 280.68 345.169 291.05 C 345.452 301.14 345.804 303.272 347.588 305.681 C 351.139 310.476 356.362 312.358 366.334 312.433 C 374.452 312.495 375.323 312.309 377.084 310.139 C 378.138 308.841 379 306.279 379 304.446 C 379 300.093 376.032 298 369.859 298 C 362.46 298 362 297.589 362 290.975 C 362 282.379 362.29 282 368.884 282 C 376.183 282 379 280.156 379 275.378 C 379 268.361 378.325 268 365.187 268 C 356.148 268 352.93 268.36 351.209 269.566 M 390.33 268.756 C 389.001 269.623 385.637 277.635 382.881 286.5 C 381.006 292.529 380.306 306.405 381.765 308.61 C 383.438 311.139 388.968 313.066 392.171 312.235 C 395.459 311.383 396.322 310.414 398.002 305.681 C 399.472 301.54 402.818 302.386 404.507 307.324 C 405.227 309.428 405.972 311.305 406.163 311.496 C 406.353 311.687 408.602 312.089 411.16 312.39 C 414.905 312.83 416.328 312.53 418.469 310.846 C 421.073 308.798 421.12 308.556 420.754 299.127 C 420.381 289.516 418.907 284.195 413.38 272.5 L 411.489 268.5 L 401.494 268.247 C 395.998 268.107 390.974 268.337 390.33 268.756 M 425.2 269.2 C 424.348 270.052 424 276.106 424 290.078 C 424 312.391 423.955 312.26 431.733 312.615 C 437.303 312.87 441 309.84 441 305.021 C 441 301.527 443.628 300 449.642 300 C 455.599 300 460.974 292.516 460.994 284.193 C 461.007 279.033 458.689 272.916 455.801 270.486 C 452.98 268.112 452.249 268 439.623 268 C 430.672 268 426.012 268.388 425.2 269.2 M 464.035 269.934 C 463.432 271.062 463 279.359 463 289.823 C 463 313.43 462.249 312.38 479.459 312.833 C 489.6 313.099 492.566 312.859 494.463 311.616 C 497.283 309.769 498.462 305.345 497.094 301.746 C 496.144 299.249 495.746 299.132 487.144 298.822 C 482.216 298.645 478.395 298.837 478.651 299.25 C 478.908 299.663 482.436 300 486.492 300 C 493.247 300 493.929 300.189 494.624 302.25 C 495.69 305.41 495.142 308.276 493.177 309.808 C 491.899 310.805 488.646 310.966 479.5 310.485 C 472.9 310.138 467.09 309.454 466.588 308.965 C 466.087 308.476 465.566 305.697 465.431 302.788 C 465.296 299.88 464.858 291.774 464.459 284.776 L 463.732 272.052 L 466.431 271.026 C 467.916 270.462 474.704 270 481.515 270 C 495.175 270 496.037 270.387 495.194 276.132 C 494.673 279.683 494.59 279.723 485.5 280.867 L 478.5 281.747 L 485.527 281.874 C 494.918 282.043 497 280.623 497 274.05 C 497 270.563 496.559 269.045 495.418 268.607 C 494.548 268.273 487.364 268 479.453 268 C 466.257 268 464.985 268.16 464.035 269.934 M 376.863 272.159 C 378.067 275.413 377.041 278.852 374.64 279.616 C 373.463 279.99 370.402 280.223 367.837 280.133 C 361.324 279.904 360 281.51 360 289.637 C 360 299.082 360.743 300 368.38 300 C 373.341 300 375.063 300.412 376.434 301.927 C 377.96 303.613 378.011 304.203 376.839 306.635 C 374.546 311.396 364.515 312.272 354.796 308.56 C 348.357 306.101 346.791 302.378 346.919 289.835 C 347.025 279.403 347.321 277.951 350.183 273.817 C 352.411 270.599 353.669 270.312 366.282 270.136 C 375.453 270.009 376.114 270.135 376.863 272.159 M 410.355 271.498 C 411.179 272.322 413.301 276.709 415.07 281.248 C 417.936 288.6 418.265 290.478 418.086 298.466 C 417.976 303.397 417.407 308.01 416.821 308.716 C 416.235 309.422 413.828 310 411.472 310 C 407.313 310 407.151 309.878 405.845 305.759 C 404.45 301.36 402.763 300.341 398.604 301.385 C 397.033 301.779 396.088 303.072 395.433 305.723 C 394.608 309.062 394.107 309.538 391.112 309.824 C 384.465 310.459 383.213 309.557 382.469 303.594 C 381.661 297.132 382.9 290.788 387.091 279.92 C 389.226 274.383 390.871 271.591 392.349 270.994 C 396.127 269.47 408.678 269.821 410.355 271.498 M 454.096 271.282 C 458.638 274.748 460.407 284.739 457.638 291.282 C 455.516 296.295 452.835 298.06 446.353 298.712 C 439.926 299.359 439.045 300.051 439 304.5 C 438.956 308.818 437.998 309.783 433.499 310.039 C 425.776 310.48 426 311.079 426 289.976 C 426 275.864 426.312 271.041 427.25 270.662 C 429.993 269.555 452.515 270.075 454.096 271.282 M 440.011 281.487 C 439.289 282.356 439.045 284.044 439.423 285.55 C 439.948 287.643 440.579 288.067 442.785 287.813 C 444.945 287.564 445.567 286.909 445.83 284.609 C 446.306 280.438 442.552 278.425 440.011 281.487 M 402.422 284.75 C 402.904 287.714 402.723 288 400.368 288 C 398.484 288 397.942 287.595 398.362 286.5 C 398.678 285.675 398.501 285 397.969 285 C 397.436 285 397 286.125 397 287.5 C 397 289.682 397.437 290 400.441 290 C 404.803 290 405.369 289.028 403.442 284.853 L 401.894 281.5 L 402.422 284.75 M 444 284 C 444 285.111 443.333 286 442.5 286 C 441.667 286 441 285.111 441 284 C 441 282.889 441.667 282 442.5 282 C 443.333 282 444 282.889 444 284 M 328 284.215 C 338.657 286.523 341.043 288.769 341.215 296.658 C 341.367 303.604 339.113 307.348 333.816 308.945 C 328.716 310.483 313.149 310.369 311.234 308.779 C 310.45 308.128 310.023 306.192 310.199 304.086 L 310.5 300.5 L 320 299.941 L 329.5 299.383 L 319.872 299.191 C 308.721 298.97 307.713 299.571 308.189 306.153 C 308.59 311.701 310.968 312.967 321 312.98 C 330.34 312.991 335.209 311.678 339.264 308.055 C 342.134 305.491 342.453 304.609 342.764 298.367 C 343.321 287.193 338.92 282.799 327.5 283.126 L 323.5 283.24 L 328 284.215 M 478.5 283.5 C 480.927 284.329 489.881 284.617 489.407 283.85 C 489.118 283.382 486.321 283.036 483.191 283.079 C 480.061 283.122 477.95 283.312 478.5 283.5 M 490.75 286.572 C 490.337 286.991 490 288.833 490 290.667 C 490 293.995 489.992 294 485.059 294 C 482.341 294 479.84 294.45 479.5 295 C 478.574 296.498 488.29 296.239 490.382 294.71 C 491.656 293.779 492.056 292.363 491.823 289.615 C 491.645 287.523 491.163 286.153 490.75 286.572" stroke-linecap="round" />
</g>
</svg>